<?xml version="1.0" encoding="UTF-8" standalone="no"?>
<!-- Generator: Adobe Illustrator 25.4.1, SVG Export Plug-In . SVG Version: 6.00 Build 0) -->

<svg
   version="1.1"
   id="Livello_1"
   x="0px"
   y="0px"
   viewBox="0 0 1000 164.94643"
   xml:space="preserve"
   sodipodi:docname="Ariston 2003.svg"
   width="1000"
   height="164.94643"
   inkscape:version="1.4.3 (0d15f75, 2025-12-25)"
   xmlns:inkscape="http://www.inkscape.org/namespaces/inkscape"
   xmlns:sodipodi="http://sodipodi.sourceforge.net/DTD/sodipodi-0.dtd"
   xmlns="http://www.w3.org/2000/svg"
   xmlns:svg="http://www.w3.org/2000/svg"><defs
   id="defs35">   </defs><sodipodi:namedview
   id="namedview35"
   pagecolor="#ffffff"
   bordercolor="#666666"
   borderopacity="1.0"
   inkscape:showpageshadow="2"
   inkscape:pageopacity="0.0"
   inkscape:pagecheckerboard="0"
   inkscape:deskcolor="#d1d1d1"
   inkscape:zoom="1"
   inkscape:cx="500.5"
   inkscape:cy="83"
   inkscape:window-width="1920"
   inkscape:window-height="1094"
   inkscape:window-x="-11"
   inkscape:window-y="-11"
   inkscape:window-maximized="1"
   inkscape:current-layer="Livello_1" /> <style
   type="text/css"
   id="style1"> .st0{fill-rule:evenodd;clip-rule:evenodd;fill:#D30C2F;} </style> <g
   id="g34"
   transform="matrix(3.5714286,0,0,3.5714286,0.57142858,-45.303572)"> <g
   id="g32"> <polygon
   class="st0"
   points="197.06,36.85 207.88,36.85 207.88,31.12 179.86,31.12 179.86,36.85 191.01,36.85 191.01,57.87 197.06,57.87 "
   id="polygon28" /> <path
   class="st0"
   d="m 271.63,56.24 c 1.95,1.93 2.48,2.26 4.39,2.26 2.55,0 3.82,-2.23 3.82,-3.82 V 31.12 h -6.37 V 49.91 L 256.91,32.72 c -1.95,-1.93 -2.55,-2.23 -4.46,-2.23 -2.55,0 -3.82,2.23 -3.82,3.82 V 57.87 H 255 V 39.08 Z"
   id="path28" /> <path
   class="st0"
   d="m 227.3,30.17 c -10.6,0 -16.56,2.63 -16.56,14.33 0,11.7 5.95,14.33 16.56,14.33 10.6,0 16.56,-2.63 16.56,-14.33 0,-11.7 -5.95,-14.33 -16.56,-14.33 z m 0,22.6 c -6.55,0 -9.87,-0.48 -9.87,-8.28 0,-7.8 3.32,-8.28 9.87,-8.28 6.55,0 9.97,0.48 9.97,8.28 0,7.81 -3.42,8.28 -9.97,8.28 z"
   id="path29" /> <polygon
   class="st0"
   points="138.47,57.87 138.45,31.12 132.4,31.12 132.4,57.87 "
   id="polygon29" /> <path
   class="st0"
   d="m 102.49,36.85 h 12.2 c 3.59,0 4.03,1.63 4.03,3.17 0,1.55 -0.47,3.19 -4.01,3.19 h -12.22 z m 16.73,10.86 c 3.82,-0.95 5.99,-3.85 5.99,-7.82 0,-5.41 -3.57,-8.77 -9.32,-8.77 H 96.76 v 26.75 h 5.73 v -9.55 h 10.19 l 6.33,9.55 h 7.36 z"
   id="path30" /> <path
   class="st0"
   d="m 163.37,41.07 h -5.36 c -4.6,0 -5.54,-0.87 -5.54,-2.51 0,-2.01 3.08,-2.78 7.42,-2.78 3.82,0 7.42,0.64 11.6,2.6 l 3.21,-4.51 c -4.56,-2.75 -9.2,-3.7 -14.88,-3.7 -8.71,0 -13.79,3.21 -13.79,8.69 0,5.96 4.93,7.99 11.29,7.93 h 5.91 c 5.81,0 6.58,0.67 6.58,2.88 0,2.2 -3.22,3.55 -8.39,3.55 -4.55,0 -9.23,-0.9 -13.34,-3.64 l -3.25,4.62 c 4.36,3.47 9.74,4.67 16.55,4.67 9.51,0 14.97,-3.46 14.97,-9.49 0.01,-5.54 -4.36,-8.31 -12.98,-8.31"
   id="path31" /> <path
   class="st0"
   d="m 55.34,57.87 h 7.35 l 2.87,-4.78 h 17.19 l 2.87,4.78 h 7.32 L 77.34,32.08 c -0.64,-0.96 -1.91,-1.59 -3.18,-1.59 -1.27,0 -2.55,0.64 -3.18,1.59 z M 74.15,38.1 79.88,48 H 68.42 l 5.73,-9.87"
   id="path32" /> </g> <g
   id="g33"> <polygon
   class="st0"
   points="13.19,36.29 13.19,45.84 27.18,45.84 27.18,36.29 20.18,29.93 "
   id="polygon32" /> <path
   class="st0"
   d="m 40.54,31.22 v 23.29 c 0,1.85 -1.5,3.35 -3.35,3.35 h -34 c -1.85,0 -3.35,-1.5 -3.35,-3.35 V 31.22 c 0,-0.95 0.41,-1.86 1.12,-2.5 L 17.95,13.54 c 1.27,-1.14 3.19,-1.14 4.46,0 l 17.01,15.18 c 0.72,0.64 1.12,1.55 1.12,2.5 z M 20.18,18.79 4.92,32.48 V 52.84 H 35.46 V 32.48 Z"
   id="path33" /> </g> </g> </svg>
